<svg xmlns="http://www.w3.org/2000/svg" xmlns:xlink="http://www.w3.org/1999/xlink" width="250" zoomAndPan="magnify" viewBox="0 0 187.5 74.999997" height="100" preserveAspectRatio="xMidYMid meet" version="1.0"><defs><g/></defs><g fill="#000000" fill-opacity="1"><g transform="translate(5.165912, 45.354051)"><g><path d="M 3.078125 -11.109375 L 8.671875 -11.109375 L 8.671875 0.078125 C 8.671875 0.785156 8.570312 1.410156 8.375 1.953125 C 8.1875 2.503906 7.90625 2.96875 7.53125 3.34375 C 7.15625 3.71875 6.695312 4 6.15625 4.1875 C 5.625 4.382812 5.015625 4.484375 4.328125 4.484375 C 3.941406 4.484375 3.578125 4.472656 3.234375 4.453125 C 2.898438 4.429688 2.546875 4.382812 2.171875 4.3125 L 2.296875 2.75 C 2.410156 2.769531 2.554688 2.785156 2.734375 2.796875 C 2.921875 2.816406 3.101562 2.832031 3.28125 2.84375 C 3.457031 2.851562 3.628906 2.859375 3.796875 2.859375 C 3.972656 2.867188 4.109375 2.875 4.203125 2.875 C 4.554688 2.875 4.890625 2.828125 5.203125 2.734375 C 5.515625 2.640625 5.785156 2.484375 6.015625 2.265625 C 6.253906 2.046875 6.441406 1.753906 6.578125 1.390625 C 6.710938 1.035156 6.78125 0.597656 6.78125 0.078125 L 6.78125 -9.453125 L 3.078125 -9.453125 Z M 6.515625 -14.03125 C 6.515625 -14.34375 6.601562 -14.601562 6.78125 -14.8125 C 6.96875 -15.03125 7.253906 -15.140625 7.640625 -15.140625 C 8.023438 -15.140625 8.3125 -15.03125 8.5 -14.8125 C 8.695312 -14.601562 8.796875 -14.34375 8.796875 -14.03125 C 8.796875 -13.726562 8.695312 -13.472656 8.5 -13.265625 C 8.3125 -13.054688 8.023438 -12.953125 7.640625 -12.953125 C 7.253906 -12.953125 6.96875 -13.054688 6.78125 -13.265625 C 6.601562 -13.472656 6.515625 -13.726562 6.515625 -14.03125 Z M 6.515625 -14.03125 "/></g></g></g><g fill="#000000" fill-opacity="1"><g transform="translate(17.783547, 45.354051)"><g><path d="M 9.09375 0 C 9.007812 -0.144531 8.945312 -0.320312 8.90625 -0.53125 C 8.863281 -0.75 8.832031 -0.976562 8.8125 -1.21875 C 8.613281 -1.019531 8.394531 -0.832031 8.15625 -0.65625 C 7.925781 -0.488281 7.671875 -0.335938 7.390625 -0.203125 C 7.109375 -0.078125 6.804688 0.0195312 6.484375 0.09375 C 6.160156 0.164062 5.816406 0.203125 5.453125 0.203125 C 4.859375 0.203125 4.320312 0.117188 3.84375 -0.046875 C 3.375 -0.222656 2.972656 -0.457031 2.640625 -0.75 C 2.304688 -1.039062 2.050781 -1.382812 1.875 -1.78125 C 1.695312 -2.175781 1.609375 -2.609375 1.609375 -3.078125 C 1.609375 -3.691406 1.726562 -4.226562 1.96875 -4.6875 C 2.207031 -5.144531 2.550781 -5.523438 3 -5.828125 C 3.445312 -6.128906 3.984375 -6.351562 4.609375 -6.5 C 5.234375 -6.65625 5.929688 -6.734375 6.703125 -6.734375 L 8.78125 -6.734375 L 8.78125 -7.609375 C 8.78125 -7.941406 8.71875 -8.238281 8.59375 -8.5 C 8.46875 -8.769531 8.289062 -9 8.0625 -9.1875 C 7.84375 -9.382812 7.566406 -9.53125 7.234375 -9.625 C 6.910156 -9.726562 6.550781 -9.78125 6.15625 -9.78125 C 5.78125 -9.78125 5.441406 -9.734375 5.140625 -9.640625 C 4.835938 -9.546875 4.582031 -9.421875 4.375 -9.265625 C 4.175781 -9.109375 4.019531 -8.921875 3.90625 -8.703125 C 3.789062 -8.484375 3.734375 -8.257812 3.734375 -8.03125 L 1.828125 -8.03125 C 1.835938 -8.4375 1.941406 -8.832031 2.140625 -9.21875 C 2.335938 -9.613281 2.625 -9.960938 3 -10.265625 C 3.382812 -10.578125 3.847656 -10.828125 4.390625 -11.015625 C 4.941406 -11.210938 5.5625 -11.3125 6.25 -11.3125 C 6.882812 -11.3125 7.472656 -11.234375 8.015625 -11.078125 C 8.554688 -10.929688 9.019531 -10.703125 9.40625 -10.390625 C 9.800781 -10.078125 10.113281 -9.6875 10.34375 -9.21875 C 10.570312 -8.75 10.6875 -8.207031 10.6875 -7.59375 L 10.6875 -2.421875 C 10.6875 -2.054688 10.71875 -1.664062 10.78125 -1.25 C 10.851562 -0.832031 10.945312 -0.472656 11.0625 -0.171875 L 11.0625 0 Z M 5.734375 -1.453125 C 6.097656 -1.453125 6.441406 -1.5 6.765625 -1.59375 C 7.085938 -1.6875 7.378906 -1.8125 7.640625 -1.96875 C 7.910156 -2.125 8.140625 -2.300781 8.328125 -2.5 C 8.515625 -2.707031 8.664062 -2.921875 8.78125 -3.140625 L 8.78125 -5.390625 L 7.015625 -5.390625 C 5.898438 -5.390625 5.035156 -5.222656 4.421875 -4.890625 C 3.804688 -4.566406 3.5 -4.050781 3.5 -3.34375 C 3.5 -3.070312 3.546875 -2.816406 3.640625 -2.578125 C 3.734375 -2.347656 3.867188 -2.148438 4.046875 -1.984375 C 4.234375 -1.816406 4.46875 -1.6875 4.75 -1.59375 C 5.03125 -1.5 5.359375 -1.453125 5.734375 -1.453125 Z M 5.734375 -1.453125 "/></g></g></g><g fill="#000000" fill-opacity="1"><g transform="translate(30.401183, 45.354051)"><g><path d="M 6.515625 -1.328125 C 6.859375 -1.328125 7.191406 -1.378906 7.515625 -1.484375 C 7.847656 -1.597656 8.140625 -1.753906 8.390625 -1.953125 C 8.640625 -2.148438 8.84375 -2.378906 9 -2.640625 C 9.15625 -2.910156 9.238281 -3.195312 9.25 -3.5 L 11.046875 -3.5 C 11.035156 -3.007812 10.90625 -2.539062 10.65625 -2.09375 C 10.40625 -1.644531 10.070312 -1.25 9.65625 -0.90625 C 9.238281 -0.570312 8.757812 -0.300781 8.21875 -0.09375 C 7.675781 0.101562 7.109375 0.203125 6.515625 0.203125 C 5.679688 0.203125 4.945312 0.0507812 4.3125 -0.25 C 3.6875 -0.550781 3.160156 -0.957031 2.734375 -1.46875 C 2.316406 -1.976562 2 -2.566406 1.78125 -3.234375 C 1.570312 -3.898438 1.46875 -4.601562 1.46875 -5.34375 L 1.46875 -5.765625 C 1.46875 -6.503906 1.570312 -7.207031 1.78125 -7.875 C 2 -8.550781 2.316406 -9.140625 2.734375 -9.640625 C 3.160156 -10.148438 3.6875 -10.554688 4.3125 -10.859375 C 4.945312 -11.160156 5.679688 -11.3125 6.515625 -11.3125 C 7.171875 -11.3125 7.773438 -11.207031 8.328125 -11 C 8.878906 -10.789062 9.351562 -10.503906 9.75 -10.140625 C 10.15625 -9.785156 10.472656 -9.363281 10.703125 -8.875 C 10.929688 -8.382812 11.046875 -7.859375 11.046875 -7.296875 L 9.25 -7.296875 C 9.238281 -7.628906 9.160156 -7.941406 9.015625 -8.234375 C 8.878906 -8.535156 8.691406 -8.796875 8.453125 -9.015625 C 8.210938 -9.242188 7.925781 -9.421875 7.59375 -9.546875 C 7.257812 -9.679688 6.898438 -9.75 6.515625 -9.75 C 5.929688 -9.75 5.4375 -9.628906 5.03125 -9.390625 C 4.632812 -9.160156 4.3125 -8.851562 4.0625 -8.46875 C 3.820312 -8.09375 3.644531 -7.664062 3.53125 -7.1875 C 3.425781 -6.71875 3.375 -6.242188 3.375 -5.765625 L 3.375 -5.34375 C 3.375 -4.851562 3.425781 -4.367188 3.53125 -3.890625 C 3.644531 -3.421875 3.820312 -2.992188 4.0625 -2.609375 C 4.300781 -2.234375 4.617188 -1.925781 5.015625 -1.6875 C 5.421875 -1.445312 5.921875 -1.328125 6.515625 -1.328125 Z M 6.515625 -1.328125 "/></g></g></g><g fill="#000000" fill-opacity="1"><g transform="translate(43.018819, 45.354051)"><g><path d="M 1.25 -5.65625 C 1.25 -6.457031 1.363281 -7.203125 1.59375 -7.890625 C 1.832031 -8.578125 2.164062 -9.171875 2.59375 -9.671875 C 3.03125 -10.179688 3.5625 -10.582031 4.1875 -10.875 C 4.8125 -11.164062 5.515625 -11.3125 6.296875 -11.3125 C 7.078125 -11.3125 7.78125 -11.164062 8.40625 -10.875 C 9.039062 -10.582031 9.570312 -10.179688 10 -9.671875 C 10.4375 -9.171875 10.769531 -8.578125 11 -7.890625 C 11.238281 -7.203125 11.359375 -6.457031 11.359375 -5.65625 L 11.359375 -5.4375 C 11.359375 -4.632812 11.238281 -3.890625 11 -3.203125 C 10.769531 -2.515625 10.4375 -1.914062 10 -1.40625 C 9.570312 -0.90625 9.046875 -0.507812 8.421875 -0.21875 C 7.796875 0.0625 7.09375 0.203125 6.3125 0.203125 C 5.53125 0.203125 4.820312 0.0625 4.1875 -0.21875 C 3.5625 -0.507812 3.03125 -0.90625 2.59375 -1.40625 C 2.164062 -1.914062 1.832031 -2.515625 1.59375 -3.203125 C 1.363281 -3.890625 1.25 -4.632812 1.25 -5.4375 Z M 3.15625 -5.4375 C 3.15625 -4.882812 3.21875 -4.359375 3.34375 -3.859375 C 3.476562 -3.367188 3.675781 -2.9375 3.9375 -2.5625 C 4.195312 -2.1875 4.523438 -1.882812 4.921875 -1.65625 C 5.328125 -1.4375 5.789062 -1.328125 6.3125 -1.328125 C 6.832031 -1.328125 7.289062 -1.4375 7.6875 -1.65625 C 8.082031 -1.882812 8.410156 -2.1875 8.671875 -2.5625 C 8.929688 -2.9375 9.125 -3.367188 9.25 -3.859375 C 9.382812 -4.359375 9.453125 -4.882812 9.453125 -5.4375 L 9.453125 -5.65625 C 9.453125 -6.195312 9.382812 -6.710938 9.25 -7.203125 C 9.125 -7.703125 8.925781 -8.140625 8.65625 -8.515625 C 8.394531 -8.898438 8.066406 -9.203125 7.671875 -9.421875 C 7.273438 -9.640625 6.816406 -9.75 6.296875 -9.75 C 5.765625 -9.75 5.300781 -9.640625 4.90625 -9.421875 C 4.519531 -9.203125 4.195312 -8.898438 3.9375 -8.515625 C 3.675781 -8.140625 3.476562 -7.703125 3.34375 -7.203125 C 3.21875 -6.710938 3.15625 -6.195312 3.15625 -5.65625 Z M 3.15625 -5.4375 "/></g></g></g><g fill="#000000" fill-opacity="1"><g transform="translate(55.636455, 45.354051)"><g><path d="M 11.203125 -5.4375 C 11.203125 -4.632812 11.101562 -3.890625 10.90625 -3.203125 C 10.71875 -2.515625 10.4375 -1.914062 10.0625 -1.40625 C 9.695312 -0.90625 9.242188 -0.507812 8.703125 -0.21875 C 8.160156 0.0625 7.535156 0.203125 6.828125 0.203125 C 6.117188 0.203125 5.5 0.078125 4.96875 -0.171875 C 4.445312 -0.421875 4.003906 -0.785156 3.640625 -1.265625 L 3.546875 0 L 1.796875 0 L 1.796875 -15.78125 L 3.703125 -15.78125 L 3.703125 -9.921875 C 4.054688 -10.367188 4.488281 -10.710938 5 -10.953125 C 5.519531 -11.191406 6.125 -11.3125 6.8125 -11.3125 C 7.519531 -11.3125 8.144531 -11.171875 8.6875 -10.890625 C 9.238281 -10.609375 9.695312 -10.21875 10.0625 -9.71875 C 10.4375 -9.21875 10.71875 -8.617188 10.90625 -7.921875 C 11.101562 -7.234375 11.203125 -6.472656 11.203125 -5.640625 Z M 9.296875 -5.640625 C 9.296875 -6.179688 9.242188 -6.695312 9.140625 -7.1875 C 9.035156 -7.675781 8.863281 -8.109375 8.625 -8.484375 C 8.394531 -8.859375 8.09375 -9.15625 7.71875 -9.375 C 7.34375 -9.59375 6.882812 -9.703125 6.34375 -9.703125 C 6.007812 -9.703125 5.703125 -9.660156 5.421875 -9.578125 C 5.148438 -9.492188 4.90625 -9.375 4.6875 -9.21875 C 4.476562 -9.0625 4.289062 -8.878906 4.125 -8.671875 C 3.957031 -8.460938 3.816406 -8.234375 3.703125 -7.984375 L 3.703125 -3.125 C 3.816406 -2.882812 3.957031 -2.660156 4.125 -2.453125 C 4.300781 -2.242188 4.5 -2.054688 4.71875 -1.890625 C 4.9375 -1.734375 5.179688 -1.613281 5.453125 -1.53125 C 5.722656 -1.445312 6.023438 -1.40625 6.359375 -1.40625 C 6.878906 -1.40625 7.320312 -1.507812 7.6875 -1.71875 C 8.0625 -1.9375 8.367188 -2.226562 8.609375 -2.59375 C 8.847656 -2.96875 9.019531 -3.398438 9.125 -3.890625 C 9.238281 -4.378906 9.296875 -4.894531 9.296875 -5.4375 Z M 9.296875 -5.640625 "/></g></g></g><g fill="#000000" fill-opacity="1"><g transform="translate(68.254091, 45.354051)"><g><path d="M 5.09375 -1.234375 C 5.09375 -1.441406 5.125 -1.632812 5.1875 -1.8125 C 5.25 -1.988281 5.34375 -2.140625 5.46875 -2.265625 C 5.59375 -2.398438 5.75 -2.503906 5.9375 -2.578125 C 6.125 -2.660156 6.335938 -2.703125 6.578125 -2.703125 C 6.828125 -2.703125 7.046875 -2.660156 7.234375 -2.578125 C 7.421875 -2.503906 7.578125 -2.398438 7.703125 -2.265625 C 7.828125 -2.140625 7.921875 -1.988281 7.984375 -1.8125 C 8.054688 -1.632812 8.09375 -1.441406 8.09375 -1.234375 C 8.09375 -1.035156 8.054688 -0.847656 7.984375 -0.671875 C 7.921875 -0.492188 7.828125 -0.335938 7.703125 -0.203125 C 7.578125 -0.078125 7.421875 0.015625 7.234375 0.078125 C 7.046875 0.148438 6.828125 0.1875 6.578125 0.1875 C 6.335938 0.1875 6.125 0.148438 5.9375 0.078125 C 5.75 0.015625 5.59375 -0.078125 5.46875 -0.203125 C 5.34375 -0.335938 5.25 -0.492188 5.1875 -0.671875 C 5.125 -0.847656 5.09375 -1.035156 5.09375 -1.234375 Z M 5.09375 -1.234375 "/></g></g></g><g fill="#000000" fill-opacity="1"><g transform="translate(80.871727, 45.354051)"><g><path d="M 2.078125 -15.78125 L 7.765625 -15.78125 L 7.765625 -1.640625 L 11.390625 -1.640625 L 11.390625 0 L 2.078125 0 L 2.078125 -1.640625 L 5.859375 -1.640625 L 5.859375 -14.125 L 2.078125 -14.125 Z M 2.078125 -15.78125 "/></g></g></g><g fill="#000000" fill-opacity="1"><g transform="translate(93.489363, 45.354051)"><g><path d="M 1.25 -5.65625 C 1.25 -6.457031 1.363281 -7.203125 1.59375 -7.890625 C 1.832031 -8.578125 2.164062 -9.171875 2.59375 -9.671875 C 3.03125 -10.179688 3.5625 -10.582031 4.1875 -10.875 C 4.8125 -11.164062 5.515625 -11.3125 6.296875 -11.3125 C 7.078125 -11.3125 7.78125 -11.164062 8.40625 -10.875 C 9.039062 -10.582031 9.570312 -10.179688 10 -9.671875 C 10.4375 -9.171875 10.769531 -8.578125 11 -7.890625 C 11.238281 -7.203125 11.359375 -6.457031 11.359375 -5.65625 L 11.359375 -5.4375 C 11.359375 -4.632812 11.238281 -3.890625 11 -3.203125 C 10.769531 -2.515625 10.4375 -1.914062 10 -1.40625 C 9.570312 -0.90625 9.046875 -0.507812 8.421875 -0.21875 C 7.796875 0.0625 7.09375 0.203125 6.3125 0.203125 C 5.53125 0.203125 4.820312 0.0625 4.1875 -0.21875 C 3.5625 -0.507812 3.03125 -0.90625 2.59375 -1.40625 C 2.164062 -1.914062 1.832031 -2.515625 1.59375 -3.203125 C 1.363281 -3.890625 1.25 -4.632812 1.25 -5.4375 Z M 3.15625 -5.4375 C 3.15625 -4.882812 3.21875 -4.359375 3.34375 -3.859375 C 3.476562 -3.367188 3.675781 -2.9375 3.9375 -2.5625 C 4.195312 -2.1875 4.523438 -1.882812 4.921875 -1.65625 C 5.328125 -1.4375 5.789062 -1.328125 6.3125 -1.328125 C 6.832031 -1.328125 7.289062 -1.4375 7.6875 -1.65625 C 8.082031 -1.882812 8.410156 -2.1875 8.671875 -2.5625 C 8.929688 -2.9375 9.125 -3.367188 9.25 -3.859375 C 9.382812 -4.359375 9.453125 -4.882812 9.453125 -5.4375 L 9.453125 -5.65625 C 9.453125 -6.195312 9.382812 -6.710938 9.25 -7.203125 C 9.125 -7.703125 8.925781 -8.140625 8.65625 -8.515625 C 8.394531 -8.898438 8.066406 -9.203125 7.671875 -9.421875 C 7.273438 -9.640625 6.816406 -9.75 6.296875 -9.75 C 5.765625 -9.75 5.300781 -9.640625 4.90625 -9.421875 C 4.519531 -9.203125 4.195312 -8.898438 3.9375 -8.515625 C 3.675781 -8.140625 3.476562 -7.703125 3.34375 -7.203125 C 3.21875 -6.710938 3.15625 -6.195312 3.15625 -5.65625 Z M 3.15625 -5.4375 "/></g></g></g><g fill="#000000" fill-opacity="1"><g transform="translate(106.106999, 45.354051)"><g><path d="M 1.4375 -5.640625 C 1.4375 -6.472656 1.535156 -7.234375 1.734375 -7.921875 C 1.941406 -8.617188 2.234375 -9.21875 2.609375 -9.71875 C 2.992188 -10.21875 3.460938 -10.609375 4.015625 -10.890625 C 4.566406 -11.171875 5.1875 -11.3125 5.875 -11.3125 C 6.5625 -11.3125 7.160156 -11.191406 7.671875 -10.953125 C 8.191406 -10.710938 8.632812 -10.363281 9 -9.90625 L 9.09375 -11.109375 L 10.8125 -11.109375 L 10.8125 -0.234375 C 10.8125 0.492188 10.695312 1.140625 10.46875 1.703125 C 10.238281 2.273438 9.914062 2.757812 9.5 3.15625 C 9.09375 3.5625 8.597656 3.863281 8.015625 4.0625 C 7.441406 4.269531 6.804688 4.375 6.109375 4.375 C 5.816406 4.375 5.484375 4.335938 5.109375 4.265625 C 4.742188 4.203125 4.375 4.097656 4 3.953125 C 3.625 3.804688 3.257812 3.609375 2.90625 3.359375 C 2.550781 3.117188 2.25 2.816406 2 2.453125 L 2.984375 1.3125 C 3.210938 1.59375 3.445312 1.832031 3.6875 2.03125 C 3.9375 2.226562 4.1875 2.382812 4.4375 2.5 C 4.695312 2.613281 4.953125 2.695312 5.203125 2.75 C 5.460938 2.800781 5.71875 2.828125 5.96875 2.828125 C 6.414062 2.828125 6.820312 2.757812 7.1875 2.625 C 7.550781 2.5 7.859375 2.3125 8.109375 2.0625 C 8.367188 1.8125 8.566406 1.5 8.703125 1.125 C 8.835938 0.757812 8.90625 0.335938 8.90625 -0.140625 L 8.90625 -1.09375 C 8.539062 -0.675781 8.101562 -0.351562 7.59375 -0.125 C 7.09375 0.09375 6.515625 0.203125 5.859375 0.203125 C 5.179688 0.203125 4.566406 0.0625 4.015625 -0.21875 C 3.460938 -0.507812 2.992188 -0.90625 2.609375 -1.40625 C 2.234375 -1.914062 1.941406 -2.515625 1.734375 -3.203125 C 1.535156 -3.890625 1.4375 -4.632812 1.4375 -5.4375 Z M 3.34375 -5.4375 C 3.34375 -4.894531 3.394531 -4.378906 3.5 -3.890625 C 3.613281 -3.398438 3.789062 -2.96875 4.03125 -2.59375 C 4.28125 -2.226562 4.59375 -1.9375 4.96875 -1.71875 C 5.34375 -1.507812 5.796875 -1.40625 6.328125 -1.40625 C 6.648438 -1.40625 6.941406 -1.441406 7.203125 -1.515625 C 7.472656 -1.597656 7.710938 -1.710938 7.921875 -1.859375 C 8.128906 -2.003906 8.316406 -2.175781 8.484375 -2.375 C 8.648438 -2.570312 8.789062 -2.789062 8.90625 -3.03125 L 8.90625 -8.125 C 8.789062 -8.351562 8.648438 -8.5625 8.484375 -8.75 C 8.316406 -8.945312 8.125 -9.113281 7.90625 -9.25 C 7.695312 -9.394531 7.460938 -9.503906 7.203125 -9.578125 C 6.941406 -9.660156 6.65625 -9.703125 6.34375 -9.703125 C 5.8125 -9.703125 5.351562 -9.59375 4.96875 -9.375 C 4.59375 -9.15625 4.28125 -8.859375 4.03125 -8.484375 C 3.789062 -8.109375 3.613281 -7.675781 3.5 -7.1875 C 3.394531 -6.695312 3.34375 -6.179688 3.34375 -5.640625 Z M 3.34375 -5.4375 "/></g></g></g><g fill="#000000" fill-opacity="1"><g transform="translate(118.724635, 45.354051)"><g><path d="M 3.671875 -6.0625 C 3.671875 -7.039062 3.742188 -7.960938 3.890625 -8.828125 C 4.046875 -9.691406 4.253906 -10.488281 4.515625 -11.21875 C 4.773438 -11.957031 5.070312 -12.628906 5.40625 -13.234375 C 5.75 -13.847656 6.109375 -14.390625 6.484375 -14.859375 C 6.859375 -15.335938 7.234375 -15.742188 7.609375 -16.078125 C 7.984375 -16.410156 8.34375 -16.675781 8.6875 -16.875 L 9.09375 -15.625 C 8.664062 -15.300781 8.238281 -14.859375 7.8125 -14.296875 C 7.394531 -13.742188 7.019531 -13.070312 6.6875 -12.28125 C 6.351562 -11.488281 6.082031 -10.578125 5.875 -9.546875 C 5.664062 -8.523438 5.5625 -7.375 5.5625 -6.09375 L 5.5625 -5.953125 C 5.5625 -4.671875 5.664062 -3.507812 5.875 -2.46875 C 6.082031 -1.4375 6.351562 -0.523438 6.6875 0.265625 C 7.019531 1.054688 7.394531 1.734375 7.8125 2.296875 C 8.238281 2.867188 8.664062 3.328125 9.09375 3.671875 L 8.6875 4.828125 C 8.34375 4.628906 7.976562 4.363281 7.59375 4.03125 C 7.21875 3.707031 6.84375 3.304688 6.46875 2.828125 C 6.101562 2.347656 5.75 1.804688 5.40625 1.203125 C 5.0625 0.597656 4.757812 -0.0664062 4.5 -0.796875 C 4.25 -1.535156 4.046875 -2.335938 3.890625 -3.203125 C 3.742188 -4.066406 3.671875 -4.988281 3.671875 -5.96875 Z M 3.671875 -6.0625 "/></g></g></g><g fill="#000000" fill-opacity="1"><g transform="translate(131.342271, 45.354051)"><g><path d="M 5.09375 -1.234375 C 5.09375 -1.441406 5.125 -1.632812 5.1875 -1.8125 C 5.25 -1.988281 5.34375 -2.140625 5.46875 -2.265625 C 5.59375 -2.398438 5.75 -2.503906 5.9375 -2.578125 C 6.125 -2.660156 6.335938 -2.703125 6.578125 -2.703125 C 6.828125 -2.703125 7.046875 -2.660156 7.234375 -2.578125 C 7.421875 -2.503906 7.578125 -2.398438 7.703125 -2.265625 C 7.828125 -2.140625 7.921875 -1.988281 7.984375 -1.8125 C 8.054688 -1.632812 8.09375 -1.441406 8.09375 -1.234375 C 8.09375 -1.035156 8.054688 -0.847656 7.984375 -0.671875 C 7.921875 -0.492188 7.828125 -0.335938 7.703125 -0.203125 C 7.578125 -0.078125 7.421875 0.015625 7.234375 0.078125 C 7.046875 0.148438 6.828125 0.1875 6.578125 0.1875 C 6.335938 0.1875 6.125 0.148438 5.9375 0.078125 C 5.75 0.015625 5.59375 -0.078125 5.46875 -0.203125 C 5.34375 -0.335938 5.25 -0.492188 5.1875 -0.671875 C 5.125 -0.847656 5.09375 -1.035156 5.09375 -1.234375 Z M 5.09375 -1.234375 "/></g></g></g><g fill="#000000" fill-opacity="1"><g transform="translate(143.959907, 45.354051)"><g><path d="M 5.09375 -1.234375 C 5.09375 -1.441406 5.125 -1.632812 5.1875 -1.8125 C 5.25 -1.988281 5.34375 -2.140625 5.46875 -2.265625 C 5.59375 -2.398438 5.75 -2.503906 5.9375 -2.578125 C 6.125 -2.660156 6.335938 -2.703125 6.578125 -2.703125 C 6.828125 -2.703125 7.046875 -2.660156 7.234375 -2.578125 C 7.421875 -2.503906 7.578125 -2.398438 7.703125 -2.265625 C 7.828125 -2.140625 7.921875 -1.988281 7.984375 -1.8125 C 8.054688 -1.632812 8.09375 -1.441406 8.09375 -1.234375 C 8.09375 -1.035156 8.054688 -0.847656 7.984375 -0.671875 C 7.921875 -0.492188 7.828125 -0.335938 7.703125 -0.203125 C 7.578125 -0.078125 7.421875 0.015625 7.234375 0.078125 C 7.046875 0.148438 6.828125 0.1875 6.578125 0.1875 C 6.335938 0.1875 6.125 0.148438 5.9375 0.078125 C 5.75 0.015625 5.59375 -0.078125 5.46875 -0.203125 C 5.34375 -0.335938 5.25 -0.492188 5.1875 -0.671875 C 5.125 -0.847656 5.09375 -1.035156 5.09375 -1.234375 Z M 5.09375 -1.234375 "/></g></g></g><g fill="#000000" fill-opacity="1"><g transform="translate(156.577543, 45.354051)"><g><path d="M 5.09375 -1.234375 C 5.09375 -1.441406 5.125 -1.632812 5.1875 -1.8125 C 5.25 -1.988281 5.34375 -2.140625 5.46875 -2.265625 C 5.59375 -2.398438 5.75 -2.503906 5.9375 -2.578125 C 6.125 -2.660156 6.335938 -2.703125 6.578125 -2.703125 C 6.828125 -2.703125 7.046875 -2.660156 7.234375 -2.578125 C 7.421875 -2.503906 7.578125 -2.398438 7.703125 -2.265625 C 7.828125 -2.140625 7.921875 -1.988281 7.984375 -1.8125 C 8.054688 -1.632812 8.09375 -1.441406 8.09375 -1.234375 C 8.09375 -1.035156 8.054688 -0.847656 7.984375 -0.671875 C 7.921875 -0.492188 7.828125 -0.335938 7.703125 -0.203125 C 7.578125 -0.078125 7.421875 0.015625 7.234375 0.078125 C 7.046875 0.148438 6.828125 0.1875 6.578125 0.1875 C 6.335938 0.1875 6.125 0.148438 5.9375 0.078125 C 5.75 0.015625 5.59375 -0.078125 5.46875 -0.203125 C 5.34375 -0.335938 5.25 -0.492188 5.1875 -0.671875 C 5.125 -0.847656 5.09375 -1.035156 5.09375 -1.234375 Z M 5.09375 -1.234375 "/></g></g></g><g fill="#000000" fill-opacity="1"><g transform="translate(169.195179, 45.354051)"><g><path d="M 8.71875 -5.96875 C 8.71875 -4.988281 8.640625 -4.066406 8.484375 -3.203125 C 8.328125 -2.335938 8.117188 -1.535156 7.859375 -0.796875 C 7.597656 -0.0664062 7.296875 0.597656 6.953125 1.203125 C 6.617188 1.804688 6.265625 2.347656 5.890625 2.828125 C 5.523438 3.304688 5.148438 3.707031 4.765625 4.03125 C 4.390625 4.363281 4.03125 4.628906 3.6875 4.828125 L 3.28125 3.671875 C 3.707031 3.347656 4.128906 2.90625 4.546875 2.34375 C 4.972656 1.78125 5.351562 1.097656 5.6875 0.296875 C 6.019531 -0.503906 6.289062 -1.425781 6.5 -2.46875 C 6.707031 -3.507812 6.8125 -4.671875 6.8125 -5.953125 L 6.8125 -6.09375 C 6.8125 -7.375 6.703125 -8.535156 6.484375 -9.578125 C 6.265625 -10.617188 5.976562 -11.539062 5.625 -12.34375 C 5.28125 -13.15625 4.898438 -13.835938 4.484375 -14.390625 C 4.078125 -14.953125 3.675781 -15.394531 3.28125 -15.71875 L 3.6875 -16.875 C 4.03125 -16.675781 4.390625 -16.410156 4.765625 -16.078125 C 5.148438 -15.742188 5.523438 -15.335938 5.890625 -14.859375 C 6.265625 -14.390625 6.617188 -13.847656 6.953125 -13.234375 C 7.296875 -12.628906 7.597656 -11.957031 7.859375 -11.21875 C 8.117188 -10.488281 8.328125 -9.691406 8.484375 -8.828125 C 8.640625 -7.960938 8.71875 -7.039062 8.71875 -6.0625 Z M 8.71875 -5.96875 "/></g></g></g></svg>